<svg width="24" height="24" viewBox="0 0 24 24" fill="none" xmlns="http://www.w3.org/2000/svg">
<g clip-path="url(#clip0_1_737)">
<path d="M5.6401 18.3599C5.37854 18.1033 5.21299 17.7647 5.17112 17.4006C5.12926 17.0366 5.21362 16.6692 5.4101 16.3599L9.2701 10.1799L16.5101 2.93994C17.1165 2.33831 17.9359 2.00047 18.7901 1.99994C19.2116 1.99994 19.6291 2.08297 20.0185 2.24429C20.408 2.4056 20.7618 2.64205 21.0599 2.94013C21.358 3.2382 21.5944 3.59207 21.7557 3.98153C21.9171 4.37098 22.0001 4.7884 22.0001 5.20994C21.9996 6.06414 21.6617 6.88356 21.0601 7.48994L13.8201 14.7299L7.6401 18.5899C7.33079 18.7864 6.96342 18.8708 6.59939 18.8289C6.23536 18.787 5.89672 18.6215 5.6401 18.3599Z" stroke="black" stroke-width="2"/>
<path d="M18.36 10.1799L14.73 13.8199L19.27 21.9999L22 20.1799L18.36 10.1799Z" stroke="black" stroke-width="2"/>
<path d="M13.82 5.63994L10.18 9.26994L2 4.72994L3.82 1.99994L13.82 5.63994Z" stroke="black" stroke-width="2"/>
<path d="M7 13.8199H2.91L2 16.5499L5.64 18.3599L7.46 21.9999L10.18 21.0899V16.9999" stroke="black" stroke-width="2"/>
</g>
<defs>
<clipPath id="clip0_1_737">
<rect width="24" height="24" fill="white"/>
</clipPath>
</defs>
</svg>
