<svg width="24" height="24" viewBox="0 0 24 24" fill="none" xmlns="http://www.w3.org/2000/svg">
<path d="M4.37 17.7399H1.5V6.25995C1.50263 5.75419 1.7047 5.2699 2.06233 4.91227C2.41996 4.55465 2.90425 4.35257 3.41 4.34995H19.92C20.3817 4.35224 20.8273 4.51997 21.1759 4.82271C21.5245 5.12544 21.753 5.54312 21.82 5.99995L22.54 11.2399V17.7399H19.67" stroke="black" stroke-width="2"/>
<path d="M15.85 17.7399H8.19995" stroke="black" stroke-width="2"/>
<path d="M17.7601 19.65C18.815 19.65 19.6701 18.7948 19.6701 17.74C19.6701 16.6851 18.815 15.83 17.7601 15.83C16.7052 15.83 15.8501 16.6851 15.8501 17.74C15.8501 18.7948 16.7052 19.65 17.7601 19.65Z" stroke="black" stroke-width="2"/>
<path d="M6.28012 19.65C7.33498 19.65 8.19012 18.7948 8.19012 17.74C8.19012 16.6851 7.33498 15.83 6.28012 15.83C5.22525 15.83 4.37012 16.6851 4.37012 17.74C4.37012 18.7948 5.22525 19.65 6.28012 19.65Z" stroke="black" stroke-width="2"/>
<path d="M4.37012 11.9999H23.5001" stroke="black" stroke-width="2"/>
<path d="M17.76 7.21994V11.9999" stroke="black" stroke-width="2"/>
<path d="M12.02 7.21994V11.9999" stroke="black" stroke-width="2"/>
<path d="M6.28003 7.21994V11.9999" stroke="black" stroke-width="2"/>
</svg>
