<svg width="24" height="24" viewBox="0 0 24 24" fill="none" xmlns="http://www.w3.org/2000/svg">
<g clip-path="url(#clip0_1_728)">
<path d="M6.27011 22.5001C7.32497 22.5001 8.18011 21.6449 8.18011 20.5901C8.18011 19.5352 7.32497 18.6801 6.27011 18.6801C5.21524 18.6801 4.36011 19.5352 4.36011 20.5901C4.36011 21.6449 5.21524 22.5001 6.27011 22.5001Z" stroke="black" stroke-width="2"/>
<path d="M16.7701 22.5001C17.825 22.5001 18.6801 21.6449 18.6801 20.5901C18.6801 19.5352 17.825 18.6801 16.7701 18.6801C15.7152 18.6801 14.8601 19.5352 14.8601 20.5901C14.8601 21.6449 15.7152 22.5001 16.7701 22.5001Z" stroke="black" stroke-width="2"/>
<path d="M14.8602 20.59H8.18018" stroke="black" stroke-width="2"/>
<path d="M18.68 20.59H22.5V16.43C22.501 15.9939 22.3528 15.5705 22.0799 15.2303C21.807 14.8901 21.4259 14.6536 21 14.56L18.68 14.09C18.5033 14.0511 18.332 13.9906 18.17 13.91C17.8156 13.7273 17.5284 13.4366 17.35 13.08L17.18 12.73C16.7831 11.9372 16.1735 11.2705 15.4195 10.8043C14.6654 10.3381 13.7965 10.0907 12.91 10.09H9.16C8.02581 10.092 6.91811 10.433 5.97909 11.0691C5.04007 11.7052 4.31258 12.6074 3.89 13.66C3.74834 14.0137 3.5041 14.317 3.18868 14.5309C2.87326 14.7447 2.50108 14.8593 2.12 14.86H1.5V20.59H4.36" stroke="black" stroke-width="2"/>
<path d="M18.1301 13.91H10.0901" stroke="black" stroke-width="2"/>
<path d="M18.68 1.50005H19.68C20.4315 1.51057 21.1488 1.81652 21.6765 2.35174C22.2042 2.88696 22.5001 3.60841 22.5 4.36005C22.5 4.73563 22.426 5.10754 22.2823 5.45453C22.1385 5.80152 21.9279 6.1168 21.6623 6.38238C21.3967 6.64795 21.0814 6.85862 20.7345 7.00235C20.3875 7.14608 20.0156 7.22005 19.64 7.22005H18.64C18.1334 7.22005 17.6476 7.01882 17.2894 6.66063C16.9312 6.30243 16.73 5.81662 16.73 5.31005V3.41005C16.7299 3.15583 16.7806 2.90415 16.8791 2.66977C16.9776 2.43539 17.1219 2.22303 17.3035 2.04514C17.4851 1.86724 17.7004 1.7274 17.9368 1.6338C18.1731 1.5402 18.4258 1.49473 18.68 1.50005Z" stroke="black" stroke-width="2"/>
<path d="M7.22998 4.35999H16.77" stroke="black" stroke-width="2"/>
<path d="M9.14014 6.26999V4.35999" stroke="black" stroke-width="2"/>
<path d="M12 6.26999V4.35999" stroke="black" stroke-width="2"/>
</g>
<defs>
<clipPath id="clip0_1_728">
<rect width="24" height="24" fill="white"/>
</clipPath>
</defs>
</svg>
