<svg width="24" height="24" viewBox="0 0 24 24" fill="none" xmlns="http://www.w3.org/2000/svg">
<path d="M13.91 5.31995H8.18C7.88375 5.32071 7.59165 5.38966 7.32633 5.52145C7.06101 5.65324 6.82959 5.84434 6.65 6.07995L4.36 9.13995L1.5 10.09V16.77H4.36C4.36 16.2634 4.56123 15.7776 4.91943 15.4194C5.27762 15.0612 5.76344 14.86 6.27 14.86C6.77656 14.86 7.26238 15.0612 7.62057 15.4194C7.97877 15.7776 8.18 16.2634 8.18 16.77H14.86C14.86 16.2634 15.0612 15.7776 15.4194 15.4194C15.7776 15.0612 16.2634 14.86 16.77 14.86C17.2766 14.86 17.7624 15.0612 18.1206 15.4194C18.4788 15.7776 18.68 16.2634 18.68 16.77H22.5V12.34C22.4994 11.9589 22.3848 11.5867 22.1709 11.2713C21.9571 10.9559 21.6538 10.7116 21.3 10.57L17.73 9.13995L15.44 6.07995C15.2615 5.8432 15.0303 5.65127 14.7647 5.51936C14.4991 5.38745 14.2065 5.31918 13.91 5.31995Z" stroke="black" stroke-width="2"/>
<path d="M16.7699 18.68C17.8247 18.68 18.6799 17.8249 18.6799 16.77C18.6799 15.7151 17.8247 14.86 16.7699 14.86C15.715 14.86 14.8599 15.7151 14.8599 16.77C14.8599 17.8249 15.715 18.68 16.7699 18.68Z" stroke="black" stroke-width="2"/>
<path d="M6.26986 18.68C7.32473 18.68 8.17986 17.8249 8.17986 16.77C8.17986 15.7151 7.32473 14.86 6.26986 14.86C5.215 14.86 4.35986 15.7151 4.35986 16.77C4.35986 17.8249 5.215 18.68 6.26986 18.68Z" stroke="black" stroke-width="2"/>
<path d="M20.1 10.09H7.22998" stroke="black" stroke-width="2"/>
<path d="M20.5898 13.91H22.4998" stroke="black" stroke-width="2"/>
<path d="M12 7.22998V10.09" stroke="black" stroke-width="2"/>
</svg>
