<svg width="24" height="24" viewBox="0 0 24 24" fill="none" xmlns="http://www.w3.org/2000/svg">
<path d="M13.9199 7.22992H2.41992V21.6099H13.9199V7.22992Z" stroke="black" stroke-width="2"/>
<path d="M21.5899 16.8099H13.9199V21.5999H21.5899V16.8099Z" stroke="black" stroke-width="2"/>
<path d="M21.5899 12.0199H13.9199V16.8099H21.5899V12.0199Z" stroke="black" stroke-width="2"/>
<path d="M21.5899 7.22992H13.9199V12.0199H21.5899V7.22992Z" stroke="black" stroke-width="2"/>
<path d="M0.5 7.22992H23.5" stroke="black" stroke-width="2"/>
<path d="M10.08 13.9399H6.25V17.7699H10.08V13.9399Z" stroke="black" stroke-width="2"/>
<path d="M5.29004 3.39993H11V5.30993C11.0002 5.8106 10.8048 6.29153 10.4555 6.6502C10.1061 7.00887 9.63054 7.21689 9.13004 7.22993H7.21004C6.70082 7.22993 6.21246 7.02765 5.85239 6.66758C5.49232 6.30751 5.29004 5.81915 5.29004 5.30993V3.39993Z" stroke="black" stroke-width="2"/>
<path d="M15.83 3.39993H11.04" stroke="black" stroke-width="2"/>
<path d="M5.29004 10.0999H11.04" stroke="black" stroke-width="2"/>
<path d="M17.75 9.14992V7.22992" stroke="black" stroke-width="2"/>
<path d="M17.75 13.9399V12.0199" stroke="black" stroke-width="2"/>
<path d="M17.75 18.7299V16.8099" stroke="black" stroke-width="2"/>
</svg>
