<svg width="24" height="24" viewBox="0 0 24 24" fill="none" xmlns="http://www.w3.org/2000/svg">
<g clip-path="url(#clip0_1_715)">
<path d="M21.5602 9.10999H2.43018V22.5H21.5602V9.10999Z" stroke="black" stroke-width="2"/>
<path d="M17.74 12.9299H6.26001V22.4999H17.74V12.9299Z" stroke="black" stroke-width="2"/>
<path d="M0.52002 9.10999H23.48" stroke="black" stroke-width="2"/>
<path d="M23.48 22.5H0.52002" stroke="black" stroke-width="2"/>
<path d="M10.09 0.5V3.37L6.26001 6.24V9.11H17.74V6.24L13.91 3.37V0.5" stroke="black" stroke-width="2"/>
<path d="M13.9101 20.59C13.9101 21.0966 13.7089 21.5824 13.3507 21.9406C12.9925 22.2988 12.5067 22.5 12.0001 22.5C11.4935 22.5 11.0077 22.2988 10.6495 21.9406C10.2913 21.5824 10.0901 21.0966 10.0901 20.59C10.0901 18.67 12.0001 16.76 12.0001 16.76C12.0001 16.76 13.9101 18.67 13.9101 20.59Z" stroke="black" stroke-width="2"/>
</g>
<defs>
<clipPath id="clip0_1_715">
<rect width="24" height="24" fill="white"/>
</clipPath>
</defs>
</svg>
