<svg width="24" height="24" viewBox="0 0 24 24" fill="none" xmlns="http://www.w3.org/2000/svg">
<g clip-path="url(#clip0_1_713)">
<path d="M6.28016 14.86H6.27016C4.69062 14.86 3.41016 16.1405 3.41016 17.72V19.64C3.41016 21.2195 4.69062 22.5 6.27016 22.5H6.28016C7.85969 22.5 9.14016 21.2195 9.14016 19.64V17.72C9.14016 16.1405 7.85969 14.86 6.28016 14.86Z" stroke="black" stroke-width="2"/>
<path d="M1.5 1.5L3.41 17.73" stroke="black" stroke-width="2"/>
<path d="M9.14014 17.73L11.0501 1.5" stroke="black" stroke-width="2"/>
<path d="M11.05 1.5C10.7976 1.90509 10.4462 2.23922 10.029 2.47088C9.61168 2.70254 9.14227 2.82411 8.665 2.82411C8.18773 2.82411 7.71832 2.70254 7.30104 2.47088C6.88377 2.23922 6.53237 1.90509 6.28 1.5C6.02637 1.90499 5.67399 2.23889 5.25593 2.47035C4.83787 2.70181 4.36785 2.82324 3.89 2.82324C3.41215 2.82324 2.94213 2.70181 2.52407 2.47035C2.10601 2.23889 1.75363 1.90499 1.5 1.5" stroke="black" stroke-width="2"/>
<path d="M6.27002 9.14001V14.86" stroke="black" stroke-width="2"/>
<path d="M17.7201 9.14001H17.7301C19.3096 9.14001 20.5901 7.85955 20.5901 6.28001V4.36001C20.5901 2.78048 19.3096 1.50001 17.7301 1.50001H17.7201C16.1406 1.50001 14.8601 2.78048 14.8601 4.36001V6.28001C14.8601 7.85955 16.1406 9.14001 17.7201 9.14001Z" stroke="black" stroke-width="2"/>
<path d="M22.5001 22.5L20.5901 6.27002" stroke="black" stroke-width="2"/>
<path d="M14.86 6.27002L12.95 22.5" stroke="black" stroke-width="2"/>
<path d="M13 22.5C13.2524 22.0949 13.6038 21.7608 14.021 21.5291C14.4383 21.2975 14.9077 21.1759 15.385 21.1759C15.8623 21.1759 16.3317 21.2975 16.749 21.5291C17.1662 21.7608 17.5176 22.0949 17.77 22.5C18.0236 22.095 18.376 21.7611 18.7941 21.5297C19.2121 21.2982 19.6821 21.1768 20.16 21.1768C20.6379 21.1768 21.1079 21.2982 21.5259 21.5297C21.944 21.7611 22.2964 22.095 22.55 22.5" stroke="black" stroke-width="2"/>
<path d="M17.73 14.86V9.14001" stroke="black" stroke-width="2"/>
</g>
<defs>
<clipPath id="clip0_1_713">
<rect width="24" height="24" fill="white"/>
</clipPath>
</defs>
</svg>
