<svg width="24" height="24" viewBox="0 0 24 24" fill="none" xmlns="http://www.w3.org/2000/svg">
<path d="M17.17 20.03L22.5 21.55V4.35996L15.82 2.45996L8.18 4.35996L1.5 2.45996V19.64L8.18 21.55L14.43 19.98" stroke="black" stroke-width="2"/>
<path d="M19.64 15.5799C19.64 17.9699 15.82 21.5799 15.82 21.5799C15.82 21.5799 12 17.9999 12 15.5799C12.0155 15.094 12.1266 14.6158 12.3271 14.1728C12.5275 13.7298 12.8132 13.3307 13.168 12.9982C13.5228 12.6657 13.9396 12.4064 14.3947 12.2351C14.8497 12.0638 15.334 11.9839 15.82 11.9999C16.306 11.9839 16.7903 12.0638 17.2453 12.2351C17.7004 12.4064 18.1172 12.6657 18.472 12.9982C18.8268 13.3307 19.1125 13.7298 19.3129 14.1728C19.5134 14.6158 19.6245 15.094 19.64 15.5799Z" stroke="black" stroke-width="2"/>
<path d="M15.8199 16.77C16.3445 16.77 16.7699 16.3447 16.7699 15.82C16.7699 15.2953 16.3445 14.87 15.8199 14.87C15.2952 14.87 14.8699 15.2953 14.8699 15.82C14.8699 16.3447 15.2952 16.77 15.8199 16.77Z" stroke="black" stroke-width="2"/>
<path d="M8.17993 4.35999V21.55" stroke="black" stroke-width="2"/>
<path d="M15.8201 2.44995V12" stroke="black" stroke-width="2"/>
</svg>
