<svg width="24" height="24" viewBox="0 0 24 24" fill="none" xmlns="http://www.w3.org/2000/svg">
<path d="M1.07007 20.1299C1.38762 20.5542 1.79969 20.8986 2.27358 21.1359C2.74746 21.3731 3.27012 21.4966 3.80007 21.4966C4.33002 21.4966 4.85267 21.3731 5.32656 21.1359C5.80044 20.8986 6.21251 20.5542 6.53007 20.1299C6.84762 20.5542 7.25969 20.8986 7.73358 21.1359C8.20746 21.3731 8.73012 21.4966 9.26007 21.4966C9.79002 21.4966 10.3127 21.3731 10.7866 21.1359C11.2604 20.8986 11.6725 20.5542 11.9901 20.1299C12.3066 20.5541 12.7177 20.8985 13.1908 21.1358C13.6639 21.3731 14.1858 21.4966 14.7151 21.4966C15.2443 21.4966 15.7662 21.3731 16.2393 21.1358C16.7124 20.8985 17.1236 20.5541 17.4401 20.1299C17.7566 20.5541 18.1677 20.8985 18.6408 21.1358C19.1139 21.3731 19.6358 21.4966 20.1651 21.4966C20.6943 21.4966 21.2163 21.3731 21.6893 21.1358C22.1624 20.8985 22.5736 20.5541 22.8901 20.1299" stroke="black" stroke-width="2"/>
<path d="M12 11.0199C13.5078 11.0199 14.73 9.79767 14.73 8.28994C14.73 6.7822 13.5078 5.55994 12 5.55994C10.4923 5.55994 9.27002 6.7822 9.27002 8.28994C9.27002 9.79767 10.4923 11.0199 12 11.0199Z" stroke="black" stroke-width="2"/>
<path d="M12 1.00995V2.82995" stroke="black" stroke-width="2"/>
<path d="M12 13.7499V15.5799" stroke="black" stroke-width="2"/>
<path d="M19.29 8.28992H17.46" stroke="black" stroke-width="2"/>
<path d="M6.53996 8.28992H4.70996" stroke="black" stroke-width="2"/>
<path d="M17.1501 3.13995L15.8601 4.42995" stroke="black" stroke-width="2"/>
<path d="M8.1401 12.15L6.8501 13.44" stroke="black" stroke-width="2"/>
<path d="M17.1501 13.44L15.8601 12.15" stroke="black" stroke-width="2"/>
<path d="M8.1401 4.42995L6.8501 3.13995" stroke="black" stroke-width="2"/>
</svg>
