<svg width="24" height="24" viewBox="0 0 24 24" fill="none" xmlns="http://www.w3.org/2000/svg">
<path d="M3.33009 23.5V5.33001C3.32878 4.82752 3.42661 4.32971 3.618 3.86509C3.80938 3.40047 4.09055 2.97818 4.4454 2.6224C4.80025 2.26662 5.22181 1.98434 5.68593 1.79175C6.15004 1.59915 6.6476 1.50001 7.15009 1.50001H11.9301C12.4334 1.49869 12.9321 1.59686 13.3973 1.78887C13.8626 1.98088 14.2853 2.26294 14.6413 2.61885C14.9972 2.97476 15.2792 3.3975 15.4712 3.86278C15.6632 4.32805 15.7614 4.82668 15.7601 5.33001" stroke="black" stroke-width="2"/>
<path d="M10.98 7.23996L15.76 5.32996L20.54 7.23996V10.11H10.98V7.23996Z" stroke="black" stroke-width="2"/>
<path d="M11.9302 12.98V14.89" stroke="black" stroke-width="2"/>
<path d="M15.76 12.98V14.89" stroke="black" stroke-width="2"/>
<path d="M19.5901 12.98V14.89" stroke="black" stroke-width="2"/>
<path d="M11.9302 20.63V22.54" stroke="black" stroke-width="2"/>
<path d="M15.76 20.63V22.54" stroke="black" stroke-width="2"/>
<path d="M19.5901 20.63V22.54" stroke="black" stroke-width="2"/>
<path d="M13.8501 16.8V18.72" stroke="black" stroke-width="2"/>
<path d="M17.6702 16.8V18.72" stroke="black" stroke-width="2"/>
<path d="M0.459961 19.67H6.19996" stroke="black" stroke-width="2"/>
</svg>
