<svg width="24" height="24" viewBox="0 0 24 24" fill="none" xmlns="http://www.w3.org/2000/svg">
<path d="M16.8 23.5V5.33C16.8026 4.3186 16.4041 3.34742 15.6917 2.62944C14.9794 1.91146 14.0114 1.50529 13 1.5H12C10.9886 1.50529 10.0206 1.91146 9.3082 2.62944C8.59585 3.34742 8.1973 4.3186 8.19996 5.33" stroke="black" stroke-width="2"/>
<path d="M8.19991 5.33C8.82931 5.32736 9.45303 5.44906 10.0353 5.6881C10.6175 5.92714 11.1468 6.27881 11.5928 6.72294C12.0388 7.16706 12.3927 7.6949 12.6342 8.27614C12.8756 8.85738 12.9999 9.48059 12.9999 10.11V11.11H3.40991V10.11C3.40991 9.48144 3.53388 8.85905 3.77472 8.27846C4.01556 7.69787 4.36855 7.17048 4.81348 6.72649C5.2584 6.28249 5.78652 5.93061 6.36761 5.69098C6.9487 5.45135 7.57135 5.32868 8.19991 5.33Z" stroke="black" stroke-width="2"/>
<path d="M16.8001 19.68C17.3303 19.68 17.7601 19.2502 17.7601 18.72C17.7601 18.1898 17.3303 17.76 16.8001 17.76C16.2699 17.76 15.8401 18.1898 15.8401 18.72C15.8401 19.2502 16.2699 19.68 16.8001 19.68Z" stroke="black" stroke-width="2"/>
<path d="M4.37012 13.9301V15.8501" stroke="black" stroke-width="2"/>
<path d="M8.19995 13.9301V15.8501" stroke="black" stroke-width="2"/>
<path d="M12.02 13.9301V15.8501" stroke="black" stroke-width="2"/>
<path d="M4.37012 17.76V19.67" stroke="black" stroke-width="2"/>
<path d="M8.19995 17.76V19.67" stroke="black" stroke-width="2"/>
<path d="M12.02 17.76V19.67" stroke="black" stroke-width="2"/>
<path d="M4.37012 21.59V23.5" stroke="black" stroke-width="2"/>
<path d="M8.19995 21.59V23.5" stroke="black" stroke-width="2"/>
<path d="M12.02 21.59V23.5" stroke="black" stroke-width="2"/>
<path d="M21.59 18.72H17.76" stroke="black" stroke-width="2"/>
</svg>
