<svg width="24" height="24" viewBox="0 0 24 24" fill="none" xmlns="http://www.w3.org/2000/svg">
<g clip-path="url(#clip0_1_698)">
<path d="M5.31982 4.36003V3.36003C5.33032 2.86135 5.53649 2.38679 5.89384 2.0388C6.25118 1.69081 6.73104 1.49729 7.22982 1.50003C7.73639 1.50003 8.2222 1.70126 8.5804 2.05945C8.93859 2.41765 9.13982 2.90347 9.13982 3.41003V13" stroke="black" stroke-width="2"/>
<path d="M13 1.50003C13.2512 1.4987 13.5002 1.5472 13.7325 1.64272C13.9648 1.73823 14.1759 1.87887 14.3535 2.0565C14.5312 2.23412 14.6718 2.44521 14.7673 2.67754C14.8628 2.90987 14.9113 3.15883 14.91 3.41003V13" stroke="black" stroke-width="2"/>
<path d="M9.13989 10.09H14.8599" stroke="black" stroke-width="2"/>
<path d="M9.13989 6.27002H14.8599" stroke="black" stroke-width="2"/>
<path d="M14.86 5.32007H22.5V22.5001H1.5V5.32007H7.23" stroke="black" stroke-width="2"/>
<path d="M4.35986 14.86C6.10986 14.86 6.10986 15.86 7.85986 15.86C9.60986 15.86 9.60986 14.86 11.3599 14.86C13.1099 14.86 13.1099 15.86 14.8599 15.86" stroke="black" stroke-width="2"/>
<path d="M10.0898 18.6801C11.8398 18.6801 11.8398 19.6801 13.5898 19.6801C15.3398 19.6801 15.3398 18.6801 17.0898 18.6801C18.8398 18.6801 18.8398 19.6801 20.5898 19.6801" stroke="black" stroke-width="2"/>
</g>
<defs>
<clipPath id="clip0_1_698">
<rect width="24" height="24" fill="white"/>
</clipPath>
</defs>
</svg>
