<svg width="24" height="24" viewBox="0 0 24 24" fill="none" xmlns="http://www.w3.org/2000/svg">
<path d="M9.61006 12.0301C11.9849 12.0301 13.9101 10.1049 13.9101 7.73005C13.9101 5.35523 11.9849 3.43005 9.61006 3.43005C7.23523 3.43005 5.31006 5.35523 5.31006 7.73005C5.31006 10.1049 7.23523 12.0301 9.61006 12.0301Z" stroke="black" stroke-width="2"/>
<path d="M1.5 21.57L2.19 18.11C2.52985 16.3908 3.45489 14.8425 4.80771 13.7285C6.16053 12.6145 7.85755 12.0037 9.61 12C11.3583 12.0069 13.0502 12.6195 14.3976 13.7335C15.745 14.8475 16.6647 16.3941 17 18.11L17.7 21.57" stroke="black" stroke-width="2"/>
<path d="M12 11.3001C12.6472 11.7346 13.4003 11.985 14.1787 12.0245C14.9572 12.0641 15.7318 11.8913 16.4197 11.5246C17.1075 11.1579 17.6828 10.6111 18.0839 9.94274C18.485 9.27438 18.6969 8.50955 18.6969 7.73005C18.6969 6.95056 18.485 6.18573 18.0839 5.51736C17.6828 4.84899 17.1075 4.30223 16.4197 3.93554C15.7318 3.56886 14.9572 3.39605 14.1787 3.43559C13.4003 3.47514 12.6472 3.72555 12 4.16005" stroke="black" stroke-width="2"/>
<path d="M22.5 21.57L21.8 18.1C21.5912 17.0485 21.1609 16.0535 20.5377 15.1812C19.9145 14.3089 19.1126 13.5793 18.1855 13.041C17.2584 12.5027 16.2272 12.168 15.1607 12.0592C14.0942 11.9504 13.0167 12.07 12 12.41" stroke="black" stroke-width="2"/>
</svg>
