<svg id="e7lWSV1tjpT1" xmlns="http://www.w3.org/2000/svg" viewBox="0 0 270 151" shape-rendering="geometricPrecision"
     text-rendering="geometricPrecision">
<style><![CDATA[
#e7lWSV1tjpT22_tr {animation: e7lWSV1tjpT22_tr__tr 8000ms linear infinite normal forwards}@keyframes e7lWSV1tjpT22_tr__tr { 0% {transform: translate(170.807837px,37.977037px) rotate(0deg);animation-timing-function: cubic-bezier(0.68,-0.55,0.265,1.55)} 50% {transform: translate(170.807837px,37.977037px) rotate(-20.861752deg);animation-timing-function: cubic-bezier(0.68,-0.55,0.265,1.55)} 100% {transform: translate(170.807837px,37.977037px) rotate(0deg)}}
]]></style>
<rect width="269.936" height="132.415" rx="0" ry="0" transform="translate(0 18)" fill="#fcf5e7"/><path d="M52.1288,76.9337c-3.4272,0-6.3292-.6633-8.7061-1.9899-2.3769-1.3543-4.1595-3.137-5.348-5.3481-1.1608-2.2387-1.7412-4.6708-1.7412-7.2965c0-2.598.608-5.0025,1.8241-7.2136c1.2437-2.211,3.0817-3.9799,5.5139-5.3065c2.4321-1.3267,5.3618-1.99,8.7889-1.99c3.2061,0,6.0252.6219,8.4574,1.8656l-1.4925,5.2236c-1.0226-.5251-2.0867-.9397-3.1922-1.2437-1.1056-.3316-2.3631-.4975-3.7727-.4975-1.7964,0-3.358.4146-4.6846,1.2438-1.299.8015-2.294,1.907-2.985,3.3166-.6633,1.3819-.995,2.9296-.995,4.6432c0,2.7085.7186,4.9334,2.1558,6.6746c1.4372,1.7136,3.4963,2.5704,6.1772,2.5704c2.294,0,4.7676-.5666,7.4209-1.6998l1.4095,5.0993c-1.1331.5804-2.4874,1.0503-4.0628,1.4096s-3.1646.5389-4.7676.5389Z" fill="#023467"/><path d="M88.1404,76.1875c-.8844.1934-1.6721.3316-2.3631.4146-.6633.0829-1.451.1243-2.363.1243-2.6533,0-4.3945-.8568-5.2237-2.5703-1.1608.8568-2.3216,1.5062-3.4824,1.9485-1.1608.4422-2.4322.6633-3.8141.6633-1.2437,0-2.3631-.2626-3.358-.7877-.995-.5251-1.7689-1.2299-2.3217-2.1143-.5527-.8845-.8291-1.8518-.8291-2.9021c0-1.7688.4422-3.1645,1.3266-4.1872.9121-1.0502,2.1282-1.8794,3.6483-2.4874c1.5201-.6357,3.8279-1.3957,6.9234-2.2802l1.2437-.3731v-.1658c0-2.5427-1.1608-3.8141-3.4824-3.8141-1.1332,0-2.3493.2487-3.6483.7462s-2.7914,1.299-4.4774,2.4046l-1.3681-4.9749c1.8794-1.0779,3.7865-1.9209,5.7211-2.5289c1.9624-.6081,4.0352-.9121,6.2187-.9121c2.6532,0,4.6847.7186,6.0942,2.1558c1.4372,1.4372,2.1558,3.897,2.1558,7.3794v7.8769c0,.6081.1244,1.0503.3731,1.3267.2488.2487.6495.3731,1.2023.3731.5251,0,1.0502-.0691,1.5754-.2073l.2487,4.892ZM71.5989,70.0103c0,.5528.1382.9535.4146,1.2023.304.2487.7738.3731,1.4095.3731c1.1608,0,2.5289-.4975,4.1043-1.4925v-4.3945l-.6219.2073c-2.0728.7463-3.4824,1.4096-4.2286,1.99-.7186.5528-1.0779,1.2575-1.0779,2.1143Z" fill="#023467"/><path d="M98.3062,76.9337c-1.4924,0-2.9849-.152-4.4774-.456-1.4924-.2764-2.7914-.6357-3.897-1.0779l1.3681-4.9749c2.5704.8844,4.8782,1.3266,6.9234,1.3266c2.7087,0,4.0627-.6633,4.0627-1.9899c0-.5804-.345-1.0641-1.036-1.451-.691-.4146-1.783-.8845-3.2754-1.4096-1.5754-.5528-2.8744-1.0641-3.897-1.5339-.995-.4975-1.8656-1.1746-2.6119-2.0314-.7186-.8568-1.0778-1.9209-1.0778-3.1923c0-2.5427.9258-4.4635,2.7776-5.7625c1.8794-1.3267,4.4774-1.99,7.7945-1.99c1.243,0,2.528.1244,3.855.3731c1.354.2211,2.515.539,3.482.9535l-1.368,4.9749c-2.155-.7462-4.076-1.1193-5.762-1.1193-2.4324,0-3.6485.5666-3.6485,1.6997c0,.5804.3179,1.0503.9536,1.4096.6356.3593,1.6719.7739,3.1089,1.2437c1.603.5251,2.93,1.0364,3.98,1.5339c1.051.4975,1.949,1.2161,2.695,2.1558.774.9397,1.161,2.1558,1.161,3.6483c0,2.4322-.94,4.3254-2.819,5.6797-1.88,1.3266-4.644,1.9899-8.2918,1.9899Z" fill="#023467"/><path d="M136.48,76.1875c-.884.1934-1.672.3316-2.363.4146-.663.0829-1.451.1243-2.363.1243-2.653,0-4.394-.8568-5.223-2.5703-1.161.8568-2.322,1.5062-3.483,1.9485-1.161.4422-2.432.6633-3.814.6633-1.244,0-2.363-.2626-3.358-.7877s-1.769-1.2299-2.322-2.1143c-.552-.8845-.829-1.8518-.829-2.9021c0-1.7688.443-3.1645,1.327-4.1872.912-1.0502,2.128-1.8794,3.648-2.4874c1.52-.6357,3.828-1.3957,6.924-2.2802l1.243-.3731v-.1658c0-2.5427-1.16-3.8141-3.482-3.8141-1.133,0-2.349.2487-3.648.7462s-2.792,1.299-4.478,2.4046l-1.368-4.9749c1.88-1.0779,3.787-1.9209,5.721-2.5289c1.963-.6081,4.035-.9121,6.219-.9121c2.653,0,4.685.7186,6.094,2.1558c1.437,1.4372,2.156,3.897,2.156,7.3794v7.8769c0,.6081.124,1.0503.373,1.3267.249.2487.65.3731,1.202.3731.525,0,1.051-.0691,1.576-.2073l.248,4.892Zm-16.541-6.1772c0,.5528.138.9535.414,1.2023.305.2487.774.3731,1.41.3731c1.161,0,2.529-.4975,4.104-1.4925v-4.3945l-.622.2073c-2.072.7463-3.482,1.4096-4.228,1.99-.719.5528-1.078,1.2575-1.078,2.1143Z" fill="#023467"/><path d="M52.1288,127.934c-3.4272,0-6.3292-.664-8.7061-1.99-2.3769-1.355-4.1595-3.137-5.348-5.348-1.1608-2.239-1.7412-4.671-1.7412-7.297c0-2.598.608-5.002,1.8241-7.213c1.2437-2.211,3.0817-3.98,5.5139-5.307c2.4321-1.3266,5.3618-1.9899,8.7889-1.9899c3.2061,0,6.0252.6219,8.4574,1.8659l-1.4925,5.223c-1.0226-.525-2.0867-.939-3.1922-1.243-1.1056-.332-2.3631-.498-3.7727-.498-1.7964,0-3.358.415-4.6846,1.244-1.299.801-2.294,1.907-2.985,3.316-.6633,1.382-.995,2.93-.995,4.644c0,2.708.7186,4.933,2.1558,6.674c1.4372,1.714,3.4963,2.571,6.1772,2.571c2.294,0,4.7676-.567,7.4209-1.7l1.4095,5.099c-1.1331.581-2.4874,1.05-4.0628,1.41-1.5754.359-3.1646.539-4.7676.539Z" fill="#023467"/><path d="M79.9733,103.391c3.0678,0,5.1822.815,6.343,2.446c1.1884,1.631,1.7826,3.98,1.7826,7.048v14.551h-7.2135v-13.639c0-1.935-.235-3.275-.7048-4.022-.4422-.746-1.3128-1.119-2.6118-1.119-1.4096,0-2.8468.47-4.3116,1.41v17.37h-7.2136v-33.1657h7.2136v10.9447c2.294-1.216,4.5327-1.824,6.7161-1.824Z" fill="#023467"/><path d="M109.513,110.356c-1.437,0-2.75.083-3.939.248-1.188.166-2.473.498-3.855.995v15.837h-7.2139v-23.548h5.348l1.0779,2.778c1.437-1.161,2.847-1.99,4.229-2.487c1.382-.498,2.833-.747,4.353-.747v6.924Z" fill="#023467"/><path d="M117.667,100.738c-1.134,0-2.115-.401-2.944-1.2026-.801-.8292-1.202-1.8103-1.202-2.9435s.401-2.1005,1.202-2.902c.829-.8292,1.81-1.2438,2.944-1.2438c1.133,0,2.1.4146,2.902,1.2438.829.8015,1.243,1.7688,1.243,2.902s-.414,2.1143-1.243,2.9435c-.802.8016-1.769,1.2026-2.902,1.2026Zm-3.607,3.15h7.213v23.548h-7.213v-23.548Z" fill="#023467"/><path d="M134.622,127.934c-1.492,0-2.985-.152-4.477-.456-1.493-.277-2.792-.636-3.897-1.078l1.368-4.975c2.57.884,4.878,1.327,6.923,1.327c2.709,0,4.063-.664,4.063-1.99c0-.581-.346-1.065-1.037-1.451-.69-.415-1.782-.885-3.275-1.41-1.575-.553-2.874-1.064-3.897-1.534-.995-.497-1.865-1.175-2.611-2.031-.719-.857-1.078-1.921-1.078-3.193c0-2.542.925-4.463,2.777-5.762c1.88-1.327,4.478-1.99,7.794-1.99c1.244,0,2.529.124,3.856.373c1.354.221,2.515.539,3.482.954l-1.368,4.974c-2.156-.746-4.077-1.119-5.762-1.119-2.433,0-3.649.567-3.649,1.7c0,.58.318,1.05.954,1.409.635.36,1.672.774,3.109,1.244c1.603.525,2.93,1.037,3.98,1.534c1.05.498,1.949,1.216,2.695,2.156.774.94,1.161,2.156,1.161,3.648c0,2.432-.94,4.325-2.82,5.68-1.879,1.326-4.643,1.99-8.291,1.99Z" fill="#023467"/><path d="M166.536,125.902c-.829.581-1.824,1.037-2.985,1.368-1.133.304-2.239.456-3.316.456-2.93,0-5.114-.635-6.551-1.907-1.437-1.299-2.155-3.15-2.155-5.555v-11.276h-3.524v-3.027l4.436-1.782l1.99-6.3434h4.311v6.0524h6.633v5.1h-6.633v9.535c0,1.465.235,2.501.705,3.109s1.175.912,2.114.912c1.216,0,2.501-.359,3.856-1.078l1.119,4.436Z" fill="#023467"/><path d="M174.387,100.738c-1.133,0-2.114-.401-2.943-1.2026-.802-.8292-1.203-1.8103-1.203-2.9435s.401-2.1005,1.203-2.902c.829-.8292,1.81-1.2438,2.943-1.2438s2.101.4146,2.902,1.2438c.829.8015,1.244,1.7688,1.244,2.902s-.415,2.1143-1.244,2.9435c-.801.8016-1.769,1.2026-2.902,1.2026Zm-3.607,3.15h7.214v23.548h-7.214v-23.548Z" fill="#023467"/><path d="M198.556,103.391c3.068,0,5.182.815,6.343,2.446c1.189,1.631,1.783,3.98,1.783,7.048v14.551h-7.214v-13.639c0-1.935-.235-3.275-.705-4.022-.442-.746-1.312-1.119-2.611-1.119-1.41,0-2.847.47-4.312,1.41v17.37h-7.214v-23.548h5.348l.747,1.949c2.708-1.631,5.32-2.446,7.835-2.446Z" fill="#023467"/><path d="M235.185,127.187c-.885.194-1.672.332-2.363.415-.664.083-1.451.124-2.363.124-2.654,0-4.395-.856-5.224-2.57-1.161.857-2.322,1.506-3.482,1.949-1.161.442-2.433.663-3.815.663-1.243,0-2.363-.263-3.358-.788s-1.768-1.23-2.321-2.114c-.553-.885-.829-1.852-.829-2.902c0-1.769.442-3.165,1.326-4.187.912-1.051,2.128-1.88,3.649-2.488c1.52-.635,3.827-1.396,6.923-2.28l1.244-.373v-.166c0-2.543-1.161-3.814-3.483-3.814-1.133,0-2.349.249-3.648.746-1.299.498-2.791,1.299-4.477,2.405l-1.368-4.975c1.879-1.078,3.786-1.921,5.721-2.529c1.962-.608,4.035-.912,6.218-.912c2.654,0,4.685.718,6.095,2.156c1.437,1.437,2.155,3.897,2.155,7.379v7.877c0,.608.125,1.05.373,1.327.249.248.65.373,1.203.373.525,0,1.05-.069,1.575-.208l.249,4.892Zm-16.542-6.177c0,.553.138.954.415,1.203.304.248.774.373,1.409.373c1.161,0,2.529-.498,4.105-1.493v-4.394l-.622.207c-2.073.746-3.483,1.41-4.229,1.99-.718.553-1.078,1.258-1.078,2.114Z" fill="#023467"/><path d="M182.87,2.32045c-4.167-1.522144-8.594-2.208513-13.026-2.019876-4.437.188801-8.793,1.250446-12.819,3.124216s-7.643,4.52288-10.645,7.79581c-3.001,3.273-5.328,7.1055-6.846,11.2784l-5.137,14.113l65.647,23.8936l5.137-14.1129c3.062-8.4116,2.66-17.6943-1.117-25.8097s-10.621-14.40028-19.028-17.47421l-.01-.00374-2.156-.7846Z" clip-rule="evenodd" fill="#fcf5e7" fill-rule="evenodd"/><path d="M215,76.8239h-64.321v-5.5931h64.321v5.5931Z" clip-rule="evenodd" fill="#023467" fill-rule="evenodd"/><path d="M183.998,60.492l-9.892-9.8917-3.955,3.9549l11.53,11.5299h33.319v-5.5931h-31.002Z" clip-rule="evenodd" fill="#023467" fill-rule="evenodd"/><path d="M188.32,63.2885v10.7387h-5.593v-10.7387h5.593Z" clip-rule="evenodd" fill="#023467" fill-rule="evenodd"/><path d="M209.77,63.2885v10.7387h-5.593v-10.7387h5.593Z" clip-rule="evenodd" fill="#023467" fill-rule="evenodd"/><path d="M155.155,73.5759L169.641,33.697l5.257,1.9097-14.486,39.8789-5.257-1.9097Z" clip-rule="evenodd" fill="#023467" fill-rule="evenodd"/><g id="e7lWSV1tjpT22_tr" transform="translate(170.807837,37.977037) rotate(0)"><path d="M176.84,18.8462c-1.999-.7309-4.122-1.0605-6.249-.97-2.126.0905-4.214.5993-6.144,1.4974-1.929.8981-3.663,2.1678-5.101,3.7364-.855.9321-1.596,1.9589-2.209,3.0583l32.2,11.7197c.637-3.3194.222-6.7789-1.222-9.8823-1.81-3.8891-5.09-6.901-9.118-8.3745l-2.157-.785Zm1.919-5.2537c-2.689-.9828-5.545-1.4261-8.406-1.3044s-5.669.8064-8.266,2.0147c-2.596,1.2083-4.928,2.9165-6.864,5.0271-1.935,2.1105-3.435,4.5819-4.415,7.2728l-1.033,2.8381l43.098,15.6863l1.033-2.8382c1.974-5.4241,1.715-11.41-.721-16.6432-2.435-5.2332-6.848-9.2859-12.269-11.2681l-2.157-.7851Z" transform="translate(-170.807837,-37.977037)" clip-rule="evenodd" fill="#023467" fill-rule="evenodd"/></g></svg>
