<svg width="149" height="10" viewBox="0 0 149 10" fill="none" xmlns="http://www.w3.org/2000/svg">
    <path d="M37.0863 3.02655L35.4445 0.826172L33.8026 3.02655C33.3449 3.63992 32.7504 4.13798 32.0663 4.48108C31.3822 4.82417 30.6275 5.00283 29.8622 5.00283C29.0968 5.00283 28.3421 4.82417 27.658 4.48108C26.9739 4.13798 26.3794 3.63992 25.9217 3.02655L24.2824 0.829559L22.6398 3.02413C22.18 3.63839 21.5834 4.13704 20.8973 4.48051C20.2112 4.82397 19.4545 5.0028 18.6873 5.0028C17.92 5.0028 17.1633 4.82397 16.4772 4.48051C15.7911 4.13704 15.1945 3.63839 14.7348 3.02413L13.0947 0.832935L11.4547 3.02413C10.9949 3.63839 10.3983 4.13704 9.71221 4.48051C9.02611 4.82397 8.26941 5.0028 7.50214 5.0028C6.73488 5.0028 5.97817 4.82397 5.29208 4.48051C4.60598 4.13704 4.00939 3.63839 3.54963 3.02413L0.269531 5.47919C1.11083 6.60321 2.20253 7.51568 3.458 8.14418C4.71347 8.77268 6.09814 9.09992 7.50214 9.09992C8.90614 9.09992 10.2908 8.77268 11.5463 8.14418C12.0963 7.86885 12.6149 7.53901 13.0947 7.16077C13.5746 7.53901 14.0931 7.86885 14.6431 8.14418C15.8986 8.77268 17.2833 9.09992 18.6873 9.09992C20.0913 9.09992 21.4759 8.77268 22.7314 8.14418C23.2808 7.86915 23.7988 7.53974 24.2782 7.16202C24.7564 7.53936 25.2731 7.86851 25.8212 8.1434C27.0754 8.77241 28.4591 9.09995 29.8622 9.09995C31.2652 9.09995 32.6489 8.77241 33.9031 8.1434C34.4489 7.86964 34.9637 7.54206 35.4402 7.16666C35.918 7.54244 36.434 7.87027 36.9811 8.14418C38.098 8.70331 39.3184 9.02401 40.5627 9.08799C40.7171 9.09595 40.8718 9.09995 41.0268 9.09995C42.4299 9.09995 43.8135 8.77241 45.0677 8.1434C45.6177 7.86806 46.138 7.53901 46.6178 7.16077C47.0977 7.53901 47.6163 7.86885 48.1663 8.14418C49.4217 8.77268 50.8064 9.09992 52.2104 9.09992C53.6144 9.09992 54.9991 8.77268 56.2545 8.14418C56.8039 7.86915 57.322 7.53974 57.8014 7.16202C58.2795 7.53936 58.7963 7.86851 59.3444 8.1434C60.5985 8.77241 61.9822 9.09995 63.3853 9.09995C64.7883 9.09995 66.172 8.77241 67.4262 8.1434C67.9717 7.86983 68.4861 7.54251 68.9623 7.16744C69.4398 7.54289 69.9555 7.87047 70.5023 8.14418C71.7362 8.7619 73.0949 9.0886 74.4742 9.09963L74.5499 9.09995C75.953 9.09995 77.3364 8.77319 78.5905 8.14418C79.1405 7.86885 79.6591 7.53901 80.139 7.16077C80.6188 7.53901 81.1374 7.86885 81.6874 8.14418C82.9428 8.77268 84.3275 9.09992 85.7315 9.09992C87.1355 9.09992 88.5202 8.77268 89.7757 8.14418C90.3251 7.86915 90.8431 7.53974 91.3225 7.16202C91.8007 7.53936 92.3174 7.86851 92.8655 8.1434C94.1197 8.77241 95.5033 9.09995 96.9064 9.09995C98.3095 9.09995 99.6932 8.77241 100.947 8.1434C101.493 7.86964 102.008 7.54206 102.484 7.16666C102.962 7.54244 103.478 7.87027 104.025 8.14418C105.124 8.69418 106.323 9.01346 107.546 9.08464C107.721 9.09483 107.896 9.09995 108.071 9.09995C109.474 9.09995 110.858 8.77241 112.112 8.1434C112.662 7.86806 113.182 7.53901 113.662 7.16077C114.142 7.53901 114.661 7.86885 115.211 8.14418C116.466 8.77268 117.851 9.09992 119.255 9.09992C120.659 9.09992 122.043 8.77268 123.299 8.14418C123.848 7.86915 124.366 7.53974 124.846 7.16202C125.324 7.53936 125.841 7.86851 126.389 8.1434C127.643 8.77241 129.026 9.09995 130.43 9.09995C131.833 9.09995 133.216 8.77241 134.47 8.1434C135.018 7.86881 135.534 7.54009 136.012 7.16327C136.49 7.54009 137.006 7.86881 137.553 8.1434C138.807 8.77241 140.191 9.09995 141.594 9.09995C142.997 9.09995 144.381 8.77241 145.635 8.1434C146.889 7.51439 147.979 6.60128 148.818 5.47677L145.535 3.02655C145.077 3.63993 144.482 4.13798 143.798 4.48108C143.114 4.82417 142.359 5.00283 141.594 5.00283C140.829 5.00283 140.074 4.82417 139.39 4.48108C138.706 4.13798 138.111 3.63993 137.654 3.02655L136.012 0.826172L134.37 3.02655C133.912 3.63992 133.318 4.13798 132.634 4.48108C131.95 4.82417 131.195 5.00283 130.43 5.00283C129.664 5.00283 128.909 4.82417 128.225 4.48108C127.541 4.13798 126.947 3.63992 126.489 3.02655L124.85 0.829559L123.207 3.02413C122.747 3.63839 122.151 4.13704 121.465 4.48051C120.779 4.82397 120.022 5.0028 119.255 5.0028C118.487 5.0028 117.731 4.82397 117.045 4.48051C116.358 4.13704 115.762 3.63839 115.302 3.02413L113.662 0.832935L112.017 3.03072L112.012 3.02655C111.554 3.63993 110.959 4.13798 110.275 4.48108C109.677 4.78129 109.024 4.9556 108.357 4.99448C108.262 5.00004 108.167 5.00283 108.071 5.00283C107.952 5.00283 107.834 4.99853 107.716 4.98999C107.073 4.94345 106.445 4.77095 105.867 4.48108C105.183 4.13798 104.588 3.63993 104.131 3.02655L102.489 0.826172L100.847 3.02655C100.389 3.63992 99.7946 4.13798 99.1106 4.48108C98.4265 4.82417 97.6717 5.00283 96.9064 5.00283C96.1411 5.00283 95.3864 4.82417 94.7023 4.48108C94.0182 4.13798 93.4236 3.63992 92.9659 3.02655L91.3266 0.829559L89.684 3.02413C89.2243 3.63839 88.6277 4.13704 87.9416 4.48051C87.2555 4.82397 86.4988 5.0028 85.7315 5.0028C84.9643 5.0028 84.2075 4.82397 83.5215 4.48051C82.8354 4.13704 82.2388 3.63839 81.779 3.02413L80.139 0.832935L78.4947 3.02976L78.4904 3.02655C78.0327 3.63993 77.4382 4.13798 76.7541 4.48108C76.5858 4.56544 76.4134 4.63986 76.2375 4.70413C75.6982 4.90123 75.1271 5.00283 74.5499 5.00283L74.5108 5.00268C73.7589 4.9967 73.0182 4.81833 72.3458 4.48108C71.6617 4.13798 71.0672 3.63993 70.6095 3.02655L68.9676 0.826172L67.3257 3.02655C66.8681 3.63992 66.2735 4.13798 65.5894 4.48108C64.9053 4.82417 64.1506 5.00283 63.3853 5.00283C62.62 5.00283 61.8652 4.82417 61.1811 4.48108C60.4971 4.13798 59.9025 3.63992 59.4448 3.02655L57.8055 0.829559L56.1629 3.02413C55.7032 3.63839 55.1066 4.13704 54.4205 4.48051C53.7344 4.82397 52.9777 5.0028 52.2104 5.0028C51.4431 5.0028 50.6864 4.82397 50.0003 4.48051C49.3142 4.13704 48.7176 3.63839 48.2579 3.02413L46.6178 0.832935L44.9728 3.03072L44.9673 3.02655C44.5096 3.63993 43.915 4.13798 43.2309 4.48108C42.6315 4.78172 41.9778 4.9561 41.3103 4.99465C41.216 5.00009 41.1215 5.00283 41.0268 5.00283C40.979 5.00283 40.9312 5.00213 40.8834 5.00074C40.1674 4.97986 39.464 4.80273 38.8227 4.48108C38.1386 4.13798 37.544 3.63993 37.0863 3.02655Z" fill="#023467"/>
</svg>
