<?xml version="1.0" standalone="no"?>
<!DOCTYPE svg PUBLIC "-//W3C//DTD SVG 20010904//EN"
 "http://www.w3.org/TR/2001/REC-SVG-20010904/DTD/svg10.dtd">
<svg version="1.0" xmlns="http://www.w3.org/2000/svg"
 width="260.000000pt" height="260.000000pt" viewBox="0 0 260.000000 260.000000"
 preserveAspectRatio="xMidYMid meet">
<metadata>
Created by potrace 1.14, written by Peter Selinger 2001-2017
</metadata>
<g transform="translate(0.000000,260.000000) scale(0.100000,-0.100000)"
fill="#000000" stroke="none">
<path d="M951 2571 c-62 -16 -242 -95 -275 -122 -6 -5 -45 -33 -86 -64 -225
-165 -457 -460 -532 -675 -78 -224 -43 -359 110 -427 130 -57 373 -25 585 77
32 16 57 26 55 22 -2 -4 -35 -72 -75 -152 -79 -161 -120 -268 -157 -410 -34
-129 -41 -186 -41 -315 1 -131 17 -195 74 -283 117 -180 331 -237 666 -177
121 22 353 120 512 216 186 113 405 316 551 512 53 71 57 81 36 98 -14 12 -19
10 -38 -16 -108 -149 -249 -296 -381 -396 -380 -290 -906 -422 -1138 -286
-121 71 -178 225 -148 403 39 228 190 570 374 844 32 47 137 191 147 200 3 3
23 28 45 55 311 392 689 701 959 784 165 51 255 6 261 -130 5 -111 -39 -227
-146 -387 -197 -294 -493 -497 -782 -536 -73 -10 -97 -23 -112 -60 -30 -72 -2
-83 135 -51 158 37 423 191 605 353 283 251 420 474 414 672 -3 92 -17 129
-70 182 -59 59 -127 81 -249 80 -352 -3 -805 -318 -1191 -827 -63 -83 -179
-254 -179 -264 0 -36 -201 -127 -370 -167 -76 -18 -219 -20 -278 -5 -79 22
-132 87 -133 164 -2 119 90 316 229 492 53 68 230 249 302 310 167 142 356
241 477 250 35 2 93 -27 94 -47 0 -7 2 -22 4 -32 11 -56 -68 -189 -167 -283
-108 -101 -228 -163 -377 -192 -64 -13 -87 -22 -99 -39 -13 -20 -12 -22 3 -29
53 -20 262 60 403 154 111 73 241 201 276 272 51 100 34 191 -41 226 -55 26
-162 29 -252 6z"/>
</g>
</svg>
