<svg width="24" height="24" viewBox="0 0 24 24" fill="none" xmlns="http://www.w3.org/2000/svg">
<path d="M12.01 10.1699H12C9.94 10.1699 8.27002 11.8399 8.27002 13.8999V15.7699C8.27002 17.8299 9.94 19.4999 12 19.4999H12.01C14.07 19.4999 15.74 17.8299 15.74 15.7699V13.8999C15.74 11.8399 14.07 10.1699 12.01 10.1699Z" stroke="black" stroke-width="2"/>
<path d="M10.1301 13.8999H13.8701" stroke="black" stroke-width="2"/>
<path d="M0.800049 15.77H8.27005" stroke="black" stroke-width="2"/>
<path d="M15.73 15.77H23.2" stroke="black" stroke-width="2"/>
<path d="M4.0701 17.6399C4.32967 17.6399 4.5401 17.4295 4.5401 17.17C4.5401 16.9104 4.32967 16.7 4.0701 16.7C3.81052 16.7 3.6001 16.9104 3.6001 17.17C3.6001 17.4295 3.81052 17.6399 4.0701 17.6399Z" stroke="black" stroke-width="2"/>
<path d="M19.93 17.6399C20.1895 17.6399 20.4 17.4295 20.4 17.17C20.4 16.9104 20.1895 16.7 19.93 16.7C19.6704 16.7 19.46 16.9104 19.46 17.17C19.46 17.4295 19.6704 17.6399 19.93 17.6399Z" stroke="black" stroke-width="2"/>
<path d="M18.53 11.0999H14.46" stroke="black" stroke-width="2"/>
<path d="M9.53997 11.0999H5.46997" stroke="black" stroke-width="2"/>
<path d="M12 5.49994V10.1699" stroke="black" stroke-width="2"/>
</svg>
