<svg width="24" height="24" viewBox="0 0 24 24" fill="none" xmlns="http://www.w3.org/2000/svg">
<g clip-path="url(#clip0_1_724)">
<path d="M2.42017 13.92H21.5802V16.79C21.5802 18.315 20.9744 19.7776 19.896 20.8559C18.8177 21.9342 17.3552 22.54 15.8302 22.54H8.17017C6.64517 22.54 5.18264 21.9342 4.1043 20.8559C3.02597 19.7776 2.42017 18.315 2.42017 16.79V13.92Z" stroke="black" stroke-width="2"/>
<path d="M16.79 13.92H12V18.71H16.79V13.92Z" stroke="black" stroke-width="2"/>
<path d="M23.5 13.92H0.5" stroke="black" stroke-width="2"/>
<path d="M2.42017 14.12V4.32996C2.42017 3.56879 2.72254 2.83879 3.26077 2.30056C3.799 1.76234 4.52899 1.45996 5.29017 1.45996H6.29017C7.04438 1.47047 7.76414 1.77748 8.29375 2.31458C8.82336 2.85167 9.12024 3.57567 9.12017 4.32996V5.32996" stroke="black" stroke-width="2"/>
<path d="M11.04 5.29004H7.20996" stroke="black" stroke-width="2"/>
</g>
<defs>
<clipPath id="clip0_1_724">
<rect width="24" height="24" fill="white"/>
</clipPath>
</defs>
</svg>
