<svg width="24" height="24" viewBox="0 0 24 24" fill="none" xmlns="http://www.w3.org/2000/svg">
<g clip-path="url(#clip0_1_726)">
<path d="M8.18005 16.8L5.00005 13.57C4.80526 13.3791 4.57348 13.2301 4.31897 13.132C4.06445 13.034 3.79257 12.9891 3.52005 13C2.98962 13 2.48091 13.2107 2.10584 13.5858C1.73077 13.9609 1.52005 14.4696 1.52005 15C1.51852 15.2656 1.5699 15.5288 1.6712 15.7744C1.7725 16.0199 1.92168 16.2428 2.11005 16.43L6.29005 20.61H20.5901C20.8412 20.6113 21.0902 20.5628 21.3225 20.4673C21.5549 20.3718 21.766 20.2312 21.9436 20.0535C22.1212 19.8759 22.2618 19.6648 22.3574 19.4325C22.4529 19.2002 22.5014 18.9512 22.5001 18.7C22.5001 18.4497 22.4506 18.2018 22.3545 17.9706C22.2584 17.7394 22.1175 17.5295 21.94 17.353C21.7625 17.1764 21.5519 17.0367 21.3202 16.9418C21.0885 16.8469 20.8404 16.7987 20.5901 16.8H8.18005Z" stroke="black" stroke-width="2"/>
<path d="M6.27002 23.48V20.61" stroke="black" stroke-width="2"/>
<path d="M19.6399 23.48V20.61" stroke="black" stroke-width="2"/>
<path d="M20.5899 8.21002H3.40991L11.9999 1.52002L20.5899 8.21002Z" stroke="black" stroke-width="2"/>
<path d="M12 16.7999V8.19995" stroke="black" stroke-width="2"/>
<path d="M12 23.48V20.61" stroke="black" stroke-width="2"/>
</g>
<defs>
<clipPath id="clip0_1_726">
<rect width="24" height="24" fill="white"/>
</clipPath>
</defs>
</svg>
