<?xml version="1.0" encoding="utf-8"?><!-- Uploaded to: SVG Repo, www.svgrepo.com, Generator: SVG Repo Mixer Tools -->
<svg width="800px" height="800px" viewBox="0 0 24 24" id="Layer_1" data-name="Layer 1" xmlns="http://www.w3.org/2000/svg"><rect x="1.48" y="2.41" width="21.04" height="4.78"/><rect x="1.48" y="7.2" width="21.04" height="15.3"/><line x1="6.26" y1="0.5" x2="6.26" y2="4.33"/><line x1="17.74" y1="0.5" x2="17.74" y2="4.33"/><line x1="12" y1="0.5" x2="12" y2="4.33"/><path d="M11,18.67H6.26v-1L8.56,16a3.86,3.86,0,0,0,1.53-3.07h0A1.92,1.92,0,0,0,8.17,11H6.26"/><path d="M17.74,11H13.91v3.83h1.92a1.91,1.91,0,0,1,1.91,1.91h0a1.91,1.91,0,0,1-1.91,1.91H13"/></svg>