<svg width="24" height="24" viewBox="0 0 24 24" fill="none" xmlns="http://www.w3.org/2000/svg">
<g clip-path="url(#clip0_1_734)">
<path d="M22.52 2.40991H1.47998V7.18991H22.52V2.40991Z" stroke="black" stroke-width="2"/>
<path d="M22.52 7.19995H1.47998V22.5H22.52V7.19995Z" stroke="black" stroke-width="2"/>
<path d="M6.26001 0.499939V4.32994" stroke="black" stroke-width="2"/>
<path d="M17.74 0.499939V4.32994" stroke="black" stroke-width="2"/>
<path d="M12 0.499939V4.32994" stroke="black" stroke-width="2"/>
<path d="M11 18.6699H6.26001V17.6699L8.56001 15.9999C9.03441 15.6408 9.41934 15.1768 9.68475 14.6442C9.95016 14.1117 10.0889 13.525 10.09 12.9299C10.0913 12.677 10.0426 12.4262 9.94674 12.1921C9.85084 11.958 9.70962 11.7452 9.5312 11.5658C9.35278 11.3865 9.14068 11.2442 8.90708 11.147C8.67348 11.0499 8.42299 10.9999 8.17001 10.9999H6.26001" stroke="black" stroke-width="2"/>
<path d="M17.74 10.9999H13.91V14.8299H15.83C16.3366 14.8299 16.8224 15.0312 17.1806 15.3894C17.5388 15.7476 17.74 16.2334 17.74 16.7399C17.74 17.2465 17.5388 17.7323 17.1806 18.0905C16.8224 18.4487 16.3366 18.6499 15.83 18.6499H13" stroke="black" stroke-width="2"/>
</g>
<defs>
<clipPath id="clip0_1_734">
<rect width="24" height="24" fill="white"/>
</clipPath>
</defs>
</svg>
