<svg width="24" height="24" viewBox="0 0 24 24" fill="none" xmlns="http://www.w3.org/2000/svg">
<path d="M2.44991 17.73H7.22991V20.59C7.22991 20.8552 7.12456 21.1096 6.93702 21.2971C6.74948 21.4846 6.49513 21.59 6.22991 21.59H3.40991C3.1447 21.59 2.89034 21.4846 2.70281 21.2971C2.51527 21.1096 2.40991 20.8552 2.40991 20.59V17.73H2.44991Z" stroke="black" stroke-width="2"/>
<path d="M16.77 17.73H21.54V20.59C21.54 20.8552 21.4346 21.1096 21.2471 21.2971C21.0596 21.4846 20.8052 21.59 20.54 21.59H17.73C17.4648 21.59 17.2104 21.4846 17.0229 21.2971C16.8353 21.1096 16.73 20.8552 16.73 20.59V17.73H16.77Z" stroke="black" stroke-width="2"/>
<path d="M5.31997 9.14001H18.68C19.185 9.13999 19.685 9.2401 20.1511 9.43457C20.6172 9.62904 21.0401 9.914 21.3954 10.273C21.7506 10.6319 22.0311 11.0578 22.2207 11.5259C22.4104 11.994 22.5053 12.495 22.5 13V17.77H1.49997V13C1.49468 12.495 1.58958 11.994 1.77918 11.5259C1.96879 11.0578 2.24933 10.6319 2.60458 10.273C2.95982 9.914 3.38273 9.62904 3.84882 9.43457C4.31491 9.2401 4.81493 9.13999 5.31997 9.14001Z" stroke="black" stroke-width="2"/>
<path d="M16.2901 2.44995H7.71011C7.29555 2.45166 6.8928 2.58819 6.56268 2.83894C6.23255 3.0897 5.99297 3.44105 5.88011 3.83995L4.36011 9.13995H19.6401L18.1201 3.83995C18.0072 3.44105 17.7677 3.0897 17.4375 2.83894C17.1074 2.58819 16.7047 2.45166 16.2901 2.44995Z" stroke="black" stroke-width="2"/>
<path d="M4.83991 14.86C5.62968 14.86 6.26991 14.2198 6.26991 13.43C6.26991 12.6402 5.62968 12 4.83991 12C4.05014 12 3.40991 12.6402 3.40991 13.43C3.40991 14.2198 4.05014 14.86 4.83991 14.86Z" stroke="black" stroke-width="2"/>
<path d="M19.16 14.86C19.9497 14.86 20.59 14.2198 20.59 13.43C20.59 12.6402 19.9497 12 19.16 12C18.3702 12 17.73 12.6402 17.73 13.43C17.73 14.2198 18.3702 14.86 19.16 14.86Z" stroke="black" stroke-width="2"/>
<path d="M22.5001 7.22998H19.0901" stroke="black" stroke-width="2"/>
<path d="M4.91 7.22998H1.5" stroke="black" stroke-width="2"/>
</svg>
