<svg width="24" height="24" viewBox="0 0 24 24" fill="none" xmlns="http://www.w3.org/2000/svg">
<path d="M20.76 18.68H3.24C2.77853 18.68 2.33595 18.4967 2.00964 18.1704C1.68332 17.8441 1.5 17.4015 1.5 16.94C1.49952 16.6076 1.59319 16.2819 1.77016 16.0005C1.94713 15.7191 2.20018 15.4936 2.5 15.35L12 11.05L21.48 15.35C21.7798 15.4936 22.0329 15.7191 22.2098 16.0005C22.3868 16.2819 22.4805 16.6076 22.48 16.94C22.48 17.3981 22.2995 17.8377 21.9775 18.1634C21.6555 18.4891 21.218 18.6748 20.76 18.68Z" stroke="black" stroke-width="2"/>
<path d="M11.9998 11.0501V10.7901C12.017 10.3912 12.1284 10.002 12.3248 9.65442C12.5212 9.30681 12.797 9.01062 13.1298 8.79006C13.4006 8.60188 13.6179 8.34683 13.7609 8.04973C13.9038 7.75263 13.9673 7.4236 13.9454 7.09465C13.9235 6.76569 13.8167 6.44802 13.6356 6.17253C13.4545 5.89705 13.2052 5.67313 12.9119 5.52257C12.6186 5.37201 12.2913 5.29993 11.9619 5.31335C11.6325 5.32677 11.3122 5.42522 11.0321 5.59914C10.752 5.77305 10.5217 6.01651 10.3636 6.30581C10.2055 6.59511 10.125 6.92041 10.1298 7.25006" stroke="black" stroke-width="2"/>
</svg>
