<svg width="24" height="24" viewBox="0 0 24 24" fill="none" xmlns="http://www.w3.org/2000/svg">
<g clip-path="url(#clip0_1_719)">
<path d="M1.5 23.4499V19.6399" stroke="black" stroke-width="2"/>
<path d="M22.5 15.8199H1.5V19.6399H22.5V15.8199Z" stroke="black" stroke-width="2"/>
<path d="M4.35995 10.9999H19.6399C20.3985 10.9999 21.1259 11.3013 21.6623 11.8376C22.1986 12.374 22.4999 13.1014 22.4999 13.8599V15.7699H1.49995V13.9099C1.49331 13.5302 1.56238 13.1529 1.70313 12.8001C1.84389 12.4473 2.0535 12.1261 2.31974 11.8552C2.58598 11.5843 2.90351 11.3692 3.2538 11.2223C3.60409 11.0755 3.98012 10.9999 4.35995 10.9999Z" stroke="black" stroke-width="2"/>
<path d="M22.5 23.4499V19.6399" stroke="black" stroke-width="2"/>
<path d="M6.27011 7.22992H10.0901C10.3409 7.22992 10.5893 7.27932 10.821 7.37531C11.0528 7.4713 11.2633 7.61199 11.4407 7.78935C11.618 7.96671 11.7587 8.17726 11.8547 8.40899C11.9507 8.64073 12.0001 8.88909 12.0001 9.13992V10.9999H4.36011V9.13992C4.36011 8.63336 4.56134 8.14754 4.91953 7.78935C5.27773 7.43115 5.76354 7.22992 6.27011 7.22992Z" stroke="black" stroke-width="2"/>
<path d="M13.91 7.22992H17.73C18.2366 7.22992 18.7224 7.43115 19.0806 7.78935C19.4388 8.14754 19.64 8.63336 19.64 9.13992V10.9999H12V9.13992C12 8.63336 12.2012 8.14754 12.5594 7.78935C12.9176 7.43115 13.4034 7.22992 13.91 7.22992Z" stroke="black" stroke-width="2"/>
<path d="M19.6301 3.40991H4.36011V11.0499H19.6301V3.40991Z" stroke="black" stroke-width="2"/>
<path d="M4.36011 0.549927V3.40993" stroke="black" stroke-width="2"/>
<path d="M19.6401 0.549927V3.40993" stroke="black" stroke-width="2"/>
</g>
<defs>
<clipPath id="clip0_1_719">
<rect width="24" height="24" fill="white"/>
</clipPath>
</defs>
</svg>
