<svg width="24" height="24" viewBox="0 0 24 24" fill="none" xmlns="http://www.w3.org/2000/svg">
<g clip-path="url(#clip0_1_711)">
<path d="M10.5698 5.79998L13.2798 3.07998C14.293 2.06685 15.667 1.49768 17.0998 1.49768C18.5326 1.49768 19.9067 2.06685 20.9198 3.07998C21.933 4.0931 22.5021 5.4672 22.5021 6.89998C22.5021 8.33275 21.933 9.70685 20.9198 10.72L18.1998 13.43" stroke="black" stroke-width="2"/>
<path d="M5.79985 10.5699L3.07985 13.2799C2.06673 14.2931 1.49756 15.6672 1.49756 17.0999C1.49756 18.5327 2.06673 19.9068 3.07985 20.9199C4.09298 21.9331 5.46708 22.5022 6.89985 22.5022C8.33263 22.5022 9.70673 21.9331 10.7199 20.9199L13.4299 18.1999" stroke="black" stroke-width="2"/>
<path d="M16.77 7.22998L7.22998 16.77" stroke="black" stroke-width="2"/>
</g>
<defs>
<clipPath id="clip0_1_711">
<rect width="24" height="24" fill="white"/>
</clipPath>
</defs>
</svg>
