<svg width="24" height="24" viewBox="0 0 24 24" fill="none" xmlns="http://www.w3.org/2000/svg">
<g clip-path="url(#clip0_1_703)">
<path d="M14.8599 6.85V8.14C14.8584 10.0728 14.7012 12.0024 14.3899 13.91L13.5899 18.68L12.9999 22.5H11.0999L10.4599 18.68L9.65994 13.91C9.34863 12.0024 9.19146 10.0728 9.18994 8.14V6.85C9.1903 5.22719 9.67043 3.6407 10.5699 2.29C10.7279 2.05372 10.9402 1.8587 11.189 1.72125C11.4377 1.58381 11.7158 1.50795 11.9999 1.5C12.2926 1.49988 12.5807 1.57191 12.8388 1.70971C13.097 1.8475 13.3172 2.04681 13.4799 2.29C14.3795 3.6407 14.8596 5.22719 14.8599 6.85Z" stroke="black" stroke-width="2"/>
<path d="M10.41 18.6799L11.04 22.4999H6.27002V19.6399L10.41 18.6799Z" stroke="black" stroke-width="2"/>
<path d="M17.73 19.6399V22.4999H12.96L13.59 18.6799L17.73 19.6399Z" stroke="black" stroke-width="2"/>
<path d="M9.61 13.9099L1.5 15.8199V11.9999L9.14 8.17993" stroke="black" stroke-width="2"/>
<path d="M14.8599 8.17993L22.4999 11.9999V15.8199L14.3899 13.9099" stroke="black" stroke-width="2"/>
<path d="M3.40991 8.17993V11.0499" stroke="black" stroke-width="2"/>
<path d="M20.5898 8.17993V11.0499" stroke="black" stroke-width="2"/>
</g>
<defs>
<clipPath id="clip0_1_703">
<rect width="24" height="24" fill="white"/>
</clipPath>
</defs>
</svg>
