<svg width="24" height="24" viewBox="0 0 24 24" fill="none" xmlns="http://www.w3.org/2000/svg">
<g clip-path="url(#clip0_1_706)">
<path d="M1.45996 13.4399H2.89996C3.28187 13.4399 3.64814 13.5917 3.91819 13.8617C4.18825 14.1318 4.33996 14.498 4.33996 14.8799C4.33732 15.2601 4.18444 15.6238 3.91468 15.8917C3.64491 16.1596 3.28015 16.31 2.89996 16.3099H1.45996V13.4399Z" stroke="black" stroke-width="2"/>
<path d="M1.45996 20.1499V16.3099H2.45996C2.71163 16.3099 2.96082 16.3597 3.1932 16.4563C3.42559 16.5529 3.63659 16.6945 3.81408 16.8729C3.99157 17.0513 4.13205 17.2631 4.22745 17.4959C4.32285 17.7288 4.37128 17.9783 4.36996 18.2299V20.1499" stroke="black" stroke-width="2"/>
<path d="M10.08 19.1899H7.20996V13.4399H10.08" stroke="black" stroke-width="2"/>
<path d="M9.12996 16.3099H7.20996" stroke="black" stroke-width="2"/>
<path d="M12 20.15V13.44H12.96L14.88 19.19H15.83V12.48" stroke="black" stroke-width="2"/>
<path d="M17.75 13.4399H23.5" stroke="black" stroke-width="2"/>
<path d="M20.6299 20.1499V13.4399" stroke="black" stroke-width="2"/>
<path d="M23.5 22.0599H0.5" stroke="black" stroke-width="2"/>
<path d="M22.54 10.5599L12 1.93994L1.45996 10.5599" stroke="black" stroke-width="2"/>
</g>
<defs>
<clipPath id="clip0_1_706">
<rect width="24" height="24" fill="white"/>
</clipPath>
</defs>
</svg>
