<svg width="24" height="24" viewBox="0 0 24 24" fill="none" xmlns="http://www.w3.org/2000/svg">
<g clip-path="url(#clip0_1_714)">
<path d="M3.38013 1.45996C4.90512 1.45996 6.36766 2.06576 7.44599 3.1441C8.52432 4.22243 9.13013 5.68497 9.13013 7.20996V15.84H3.38013V1.45996Z" stroke="black" stroke-width="2"/>
<path d="M3.38013 23.5V15.83H7.21013V23.5" stroke="black" stroke-width="2"/>
<path d="M14.8799 23.4999V11.0399H18.7099V23.4999" stroke="black" stroke-width="2"/>
<path d="M13 7.20995H20.67V8.20995C20.649 8.96591 20.3306 9.68303 19.7838 10.2055C19.237 10.7279 18.5061 11.0134 17.75 11H15.83C15.0835 10.9871 14.3711 10.6848 13.8431 10.1568C13.3151 9.62888 13.0129 8.9165 13 8.16995V7.16995V7.20995Z" stroke="black" stroke-width="2"/>
<path d="M16.79 0.499939V7.20994" stroke="black" stroke-width="2"/>
<path d="M12.96 0.499939V7.20994" stroke="black" stroke-width="2"/>
<path d="M20.6301 0.499939V7.20994" stroke="black" stroke-width="2"/>
</g>
<defs>
<clipPath id="clip0_1_714">
<rect width="24" height="24" fill="white"/>
</clipPath>
</defs>
</svg>
