<?xml version="1.0" encoding="utf-8"?><!-- Uploaded to: SVG Repo, www.svgrepo.com, Generator: SVG Repo Mixer Tools -->
<svg width="800px" height="800px" viewBox="0 0 24 24" id="Layer_1" data-name="Layer 1" xmlns="http://www.w3.org/2000/svg"><path d="M1.07,20.13h0a3.41,3.41,0,0,0,5.46,0h0a3.41,3.41,0,0,0,5.46,0h0a3.4,3.4,0,0,0,5.45,0h0a3.4,3.4,0,0,0,5.45,0h0"/><circle cx="12" cy="8.29" r="2.73"/><line x1="12" y1="1.01" x2="12" y2="2.83"/><line x1="12" y1="13.75" x2="12" y2="15.58"/><line x1="19.29" y1="8.29" x2="17.46" y2="8.29"/><line x1="6.54" y1="8.29" x2="4.71" y2="8.29"/><line x1="17.15" y1="3.14" x2="15.86" y2="4.43"/><line x1="8.14" y1="12.15" x2="6.85" y2="13.44"/><line x1="17.15" y1="13.44" x2="15.86" y2="12.15"/><line x1="8.14" y1="4.43" x2="6.85" y2="3.14"/></svg>