<svg width="24" height="24" viewBox="0 0 24 24" fill="none" xmlns="http://www.w3.org/2000/svg">
<g clip-path="url(#clip0_1_700)">
<path d="M3.66002 10.11H20.34C20.9129 10.11 21.4623 10.3376 21.8674 10.7426C22.2725 11.1477 22.5 11.6971 22.5 12.27V16.8H1.50002V12.28C1.49871 11.9955 1.5536 11.7135 1.66156 11.4503C1.76952 11.1871 1.92842 10.9478 2.12913 10.7462C2.32983 10.5445 2.56839 10.3845 2.83111 10.2754C3.09383 10.1662 3.37552 10.11 3.66002 10.11Z" stroke="black" stroke-width="2"/>
<path d="M4.58997 1.52004H19.41C19.9749 1.52004 20.5167 1.74445 20.9161 2.14391C21.3156 2.54336 21.54 3.08513 21.54 3.65004V10.11H2.44997V3.66004C2.44865 3.37864 2.5031 3.09977 2.61018 2.83954C2.71725 2.5793 2.87483 2.34286 3.07381 2.14388C3.2728 1.9449 3.50923 1.78732 3.76947 1.68024C4.0297 1.57317 4.30858 1.51872 4.58997 1.52004Z" stroke="black" stroke-width="2"/>
<path d="M9.50998 6.30005H14.51C15.1147 6.30005 15.6946 6.54026 16.1222 6.96784C16.5498 7.39543 16.79 7.97535 16.79 8.58005V10.12H7.22998V8.58005C7.22998 7.97535 7.47019 7.39543 7.89778 6.96784C8.32536 6.54026 8.90529 6.30005 9.50998 6.30005Z" stroke="black" stroke-width="2"/>
<path d="M22.5 16.8H1.5V20.6201H22.5V16.8Z" stroke="black" stroke-width="2"/>
<path d="M2.44995 23.48V20.61" stroke="black" stroke-width="2"/>
<path d="M21.55 23.48V20.61" stroke="black" stroke-width="2"/>
</g>
<defs>
<clipPath id="clip0_1_700">
<rect width="24" height="24" fill="white"/>
</clipPath>
</defs>
</svg>
