<?xml version="1.0" encoding="utf-8"?><!-- Uploaded to: SVG Repo, www.svgrepo.com, Generator: SVG Repo Mixer Tools -->
<svg width="800px" height="800px" viewBox="0 0 24 24" id="Layer_1" data-name="Layer 1" xmlns="http://www.w3.org/2000/svg"><polyline points="1 7 1 1 7 1"/><polyline points="17 1 23 1 23 7"/><polyline points="1 17 1 23 7 23"/><polyline points="17 23 23 23 23 17"/><path d="M22,12A11.54,11.54,0,0,1,2,12a11.54,11.54,0,0,1,20,0Z"/><path d="M22,12A11.54,11.54,0,0,1,2,12a11.54,11.54,0,0,1,20,0Z"/><circle cx="12" cy="12" r="3"/></svg>