<?xml version="1.0" encoding="utf-8"?><!-- Uploaded to: SVG Repo, www.svgrepo.com, Generator: SVG Repo Mixer Tools -->
<svg width="800px" height="800px" viewBox="0 0 24 24" id="Layer_1" data-name="Layer 1" xmlns="http://www.w3.org/2000/svg"><path d="M.5,3.4c1.92,0,1.92.95,3.83.95S6.25,3.4,8.16,3.4s1.92.95,3.83.95,1.92-.95,3.83-.95,1.92.95,3.84.95,1.92-.95,3.84-.95"/><path d="M.5,9.15c1.92,0,1.92.95,3.83.95s1.92-.95,3.83-.95,1.92.95,3.83.95,1.92-.95,3.83-.95,1.92.95,3.84.95,1.92-.95,3.84-.95"/><path d="M.5,14.9c1.92,0,1.92.95,3.83.95s1.92-.95,3.83-.95,1.92.95,3.83.95,1.92-.95,3.83-.95,1.92.95,3.84.95,1.92-.95,3.84-.95"/><path d="M.5,20.65c1.92,0,1.92,1,3.83,1s1.92-1,3.83-1,1.92,1,3.83,1,1.92-1,3.83-1,1.92,1,3.84,1,1.92-1,3.84-1"/></svg>